# xmcd
#
# Track frame offsets: 
#        150
#        22107
#        59457
#        86557
#        109892
#        131442
#        153370
#        179095
#        200700
#        236317
#        254472
#        279907
#
# Disc length: 4026 seconds
#
# Revision: 0
# Processed by: cddbd v1.5.2PL0 Copyright (c) Steve Scherf et al.
# Submitted via: ExactAudioCopy v1.0b3
#
DISCID=a90fb80c
DTITLE=Various Artist - Mua Xuan cua Me
DYEAR=1991
DGENRE=
TTITLE0=Hai Ly - Xuan hop mat
TTITLE1=Khanh Ly - Mua Xuan cua Me
TTITLE2=Thien Trang - Don Xuan nay nho Xuan xua
TTITLE3=Duy Quang - Xuan da ve
TTITLE4=Ngoc Minh - Mua Xuan dau tien
TTITLE5=Truc Mai - Canh thiep dau Xuan
TTITLE6=Anh Le - Phien gac dem Xuan
TTITLE7=Duy Quang - Khuc nhac ngay Xuan
TTITLE8=Thien Trang - Ngay dau mot nam
TTITLE9=Khanh Ly - Xuan nghe si hanh khuc
TTITLE10=Hai Ly - Gio mua Xuan toi
TTITLE11=Huy Sinh, Huyen Chau - Ly ruou mung
EXTD=
EXTT0=
EXTT1=
EXTT2=
EXTT3=
EXTT4=
EXTT5=
EXTT6=
EXTT7=
EXTT8=
EXTT9=
EXTT10=
EXTT11=
PLAYORDER=
